<svg width="120" height="46" viewBox="0 0 120 46" fill="none" xmlns="http://www.w3.org/2000/svg">
<path fill-rule="evenodd" clip-rule="evenodd" d="M19.8166 29.6824C19.8166 31.7026 18.0866 33.4121 15.8847 33.4121C13.6829 33.4121 11.9529 31.7026 11.9529 29.6824C11.9529 27.6621 13.6829 25.9526 15.8847 25.9526C18.0866 25.9526 19.8166 27.6621 19.8166 29.6824Z" fill="#EA3118"/>
<path fill-rule="evenodd" clip-rule="evenodd" d="M1.25823 46C-0.314505 46.6216 4.26192e-05 41.9595 4.26192e-05 41.4932C1.10096 32.6351 11.6383 5.12837 19.3447 0.621613C22.8048 -1.39866 25.6357 0.932424 26.5793 4.66215C27.0512 6.83783 27.3657 10.8784 27.6803 13.3649C28.7812 20.5135 30.983 31.3919 39.6331 32.7905C46.5531 33.8784 61.4941 28.75 68.5715 27.0405C84.4561 23.1554 101.914 21.7567 116.697 29.9932C118.427 30.9257 118.585 30.9257 120 32.3243C117.955 32.1689 117.798 32.0135 116.068 31.5473C100.813 26.8851 89.1744 27.3513 73.9188 31.7027C64.7969 34.3446 51.9004 39.7838 43.0931 40.4054C24.3775 41.804 21.5466 22.6892 20.7602 8.54729C20.7602 7.92567 20.6029 7.45945 20.6029 6.83783C18.8729 8.8581 16.5138 12.5878 15.7274 13.6757C12.7392 18.4932 4.26117e-05 41.3378 1.25823 46ZM22.0184 5.74999H22.1757C22.1757 5.74999 22.1757 5.74999 22.0184 5.74999Z" fill="#EA3118"/>
</svg>
