<svg width="16" height="20" viewBox="0 0 16 20" fill="none" xmlns="http://www.w3.org/2000/svg">
<path d="M6.50009 13.9988C6.50009 13.1704 7.17166 12.4988 8.00009 12.4988C8.82852 12.4988 9.50009 13.1704 9.50009 13.9988C9.50009 14.8273 8.82852 15.4988 8.00009 15.4988C7.17166 15.4988 6.50009 14.8273 6.50009 13.9988Z" fill="#EA3118"/>
<path fill-rule="evenodd" clip-rule="evenodd" d="M5.81058 2.00381C6.04294 1.9113 6.28534 1.84634 6.53283 1.81028C8.00609 1.59562 9.43275 2.42545 9.97454 3.81219L10.0496 4.00421C10.1425 4.24215 10.2088 4.48964 10.2473 4.74218L10.4639 6.16449L11.9468 5.93864L11.7302 4.51633C11.6751 4.15428 11.58 3.79946 11.4467 3.45836L11.3717 3.26633C10.5759 1.2295 8.48046 0.0106566 6.31655 0.325958C5.95304 0.378923 5.59701 0.474324 5.25572 0.610205C3.22407 1.4191 2.01876 3.52238 2.34802 5.68422L2.37906 5.88803C2.4342 6.25007 2.52927 6.60489 2.66254 6.946L3.31669 8.62033L2.93521 8.65078C1.85248 8.73722 0.96838 9.55112 0.792864 10.623C0.426793 12.8587 0.426793 15.139 0.792864 17.3746C0.96838 18.4465 1.85249 19.2604 2.93521 19.3469L4.43134 19.4663C6.80673 19.6559 9.19345 19.6559 11.5688 19.4663L13.065 19.3469C14.1477 19.2604 15.0318 18.4465 15.2073 17.3746C15.5734 15.139 15.5734 12.8587 15.2073 10.623C15.0318 9.55112 14.1477 8.73722 13.065 8.65078L11.5688 8.53134C9.34271 8.35362 7.10663 8.34246 4.87925 8.49784L4.0597 6.40014C3.96674 6.16221 3.90042 5.91471 3.86196 5.66218L3.83092 5.45837C3.60675 3.98652 4.42736 2.55453 5.81058 2.00381ZM11.4495 10.0266C9.15353 9.8433 6.84664 9.8433 4.55071 10.0266L3.05458 10.146C2.65965 10.1776 2.33717 10.4744 2.27315 10.8654C1.93336 12.9405 1.93336 15.0571 2.27315 17.1323C2.33717 17.5232 2.65965 17.8201 3.05458 17.8516L4.55071 17.9711C6.84664 18.1544 9.15354 18.1544 11.4495 17.9711L12.9456 17.8516C13.3405 17.8201 13.663 17.5232 13.727 17.1323C14.0668 15.0571 14.0668 12.9405 13.727 10.8654C13.663 10.4744 13.3405 10.1776 12.9456 10.146L11.4495 10.0266Z" fill="#EA3118"/>
</svg>
