<svg width="40" height="40" viewBox="0 0 40 40" fill="none" xmlns="http://www.w3.org/2000/svg">
<path fill-rule="evenodd" clip-rule="evenodd" d="M6.20662 14.087L12.15 11.9904C10.9228 13.6423 9.86897 15.416 9.00495 17.2835L6.20662 14.087ZM2.07828 14.432L7.58328 20.7217L6.78662 22.7149C6.66537 23.0174 6.63548 23.3488 6.70065 23.6682C6.76583 23.9875 6.92319 24.2807 7.15328 24.5115L7.67828 25.0348C4.83828 28.2346 3.27162 31.5828 1.75162 36.1392C1.65369 36.4329 1.63947 36.748 1.71057 37.0493C1.78167 37.3505 1.93528 37.6261 2.15417 37.8449C2.37306 38.0638 2.64859 38.2174 2.94987 38.2885C3.25116 38.3596 3.56629 38.3454 3.85995 38.2475C8.41662 36.7276 11.765 35.161 14.965 32.3211L15.4883 32.8444C15.7189 33.0748 16.0121 33.2324 16.3314 33.2979C16.6507 33.3634 16.9823 33.3338 17.285 33.2127L19.2783 32.4161L25.5683 37.9208C25.7732 38.1003 26.0189 38.2267 26.284 38.2892C26.5492 38.3517 26.8255 38.3482 27.089 38.2792C27.3525 38.2101 27.595 38.0775 27.7953 37.893C27.9957 37.7085 28.1478 37.4777 28.2383 37.2209L33.215 23.1216C36.5205 19.2103 38.3338 14.2548 38.3333 9.1339V3.33419C38.3333 2.89218 38.1577 2.46828 37.8451 2.15573C37.5326 1.84319 37.1086 1.6676 36.6666 1.6676H30.8666C25.7463 1.66689 20.7911 3.47951 16.88 6.78402L2.77995 11.7621C2.52335 11.8527 2.29285 12.0048 2.10856 12.205C1.92428 12.4052 1.79183 12.6475 1.72278 12.9107C1.65372 13.1739 1.65017 13.45 1.71244 13.7149C1.7747 13.9798 1.90088 14.2254 2.07995 14.4303L2.07828 14.432ZM6.14162 33.8577C7.18828 31.3312 8.36162 29.3212 10.04 27.3963L12.6033 29.9596C10.6783 31.6378 8.66828 32.8111 6.14162 33.8577ZM17.0683 29.7112L16.1783 28.8213L11.1783 23.8215L10.2883 22.9316L11.4716 19.9734C12.5576 17.2596 14.0824 14.7428 15.985 12.5237L16.945 11.4021C18.6663 9.39409 20.8018 7.78228 23.2049 6.67732C25.608 5.57236 28.2217 5.00043 30.8666 5.00077H35V9.1339C35.0003 11.7787 34.4283 14.3923 33.3233 16.7952C32.2183 19.1982 30.6064 21.3336 28.5983 23.0549L27.4766 24.0148C25.2574 25.9173 22.7405 27.442 20.0266 28.528L17.0683 29.7112ZM25.9133 33.7927L22.7166 30.9962C24.5843 30.1322 26.3581 29.0784 28.01 27.8513L25.9133 33.7927ZM25 13.3337C25 12.8917 25.1755 12.4678 25.4881 12.1552C25.8007 11.8427 26.2246 11.6671 26.6666 11.6671C27.1086 11.6671 27.5326 11.8427 27.8451 12.1552C28.1577 12.4678 28.3333 12.8917 28.3333 13.3337C28.3333 13.7757 28.1577 14.1996 27.8451 14.5122C27.5326 14.8247 27.1086 15.0003 26.6666 15.0003C26.2246 15.0003 25.8007 14.8247 25.4881 14.5122C25.1755 14.1996 25 13.7757 25 13.3337ZM26.6666 8.33394C25.3405 8.33394 24.0688 8.8607 23.1311 9.79834C22.1934 10.736 21.6666 12.0077 21.6666 13.3337C21.6666 14.6597 22.1934 15.9314 23.1311 16.8691C24.0688 17.8067 25.3405 18.3335 26.6666 18.3335C27.9927 18.3335 29.2645 17.8067 30.2022 16.8691C31.1398 15.9314 31.6666 14.6597 31.6666 13.3337C31.6666 12.0077 31.1398 10.736 30.2022 9.79834C29.2645 8.8607 27.9927 8.33394 26.6666 8.33394Z" fill="#EA3118"/>
</svg>
