<svg width="32" height="30" viewBox="0 0 32 30" fill="none" xmlns="http://www.w3.org/2000/svg">
<path fill-rule="evenodd" clip-rule="evenodd" d="M13.4774 1.85695C14.6014 -0.0801663 17.3988 -0.0801609 18.5228 1.85695L21.9651 7.78921C22.2824 8.33602 22.8308 8.70917 23.4559 8.80359L29.172 9.66693C31.6636 10.0433 32.5376 13.1892 30.5971 14.7969L26.4323 18.2474C25.8477 18.7317 25.5729 19.4956 25.7149 20.2414L26.8815 26.368C27.3385 28.7679 24.8191 30.6326 22.6574 29.4944L16.9707 26.5001C16.3632 26.1802 15.637 26.1802 15.0295 26.5001L9.34273 29.4944C7.18104 30.6326 4.66167 28.7679 5.11866 26.368L6.2853 20.2414C6.4273 19.4957 6.15243 18.7317 5.56786 18.2474L1.40303 14.7969C-0.537446 13.1892 0.33656 10.0433 2.82822 9.66693L8.5443 8.80359C9.1694 8.70917 9.71782 8.33602 10.0351 7.78921L13.4774 1.85695ZM16.3605 3.11166C16.1999 2.83493 15.8003 2.83493 15.6397 3.11166L12.1974 9.04393C11.4994 10.2469 10.2929 11.0678 8.91766 11.2755L3.20158 12.1389C2.84562 12.1927 2.72077 12.6421 2.99798 12.8717L7.16282 16.3223C8.44887 17.3877 9.05357 19.0684 8.74117 20.709L7.57453 26.8357C7.50925 27.1785 7.86916 27.4449 8.17797 27.2823L13.8647 24.288C15.2013 23.5842 16.7989 23.5842 18.1355 24.288L23.8222 27.2823C24.131 27.4449 24.4909 27.1785 24.4256 26.8357L23.259 20.709C22.9466 19.0684 23.5513 17.3878 24.8374 16.3223L29.0022 12.8717C29.2794 12.6421 29.1545 12.1927 28.7986 12.1389L23.0825 11.2755C21.7073 11.0678 20.5008 10.2469 19.8027 9.04393L16.3605 3.11166Z" fill="#EA3118"/>
</svg>
