<svg width="30" height="30" viewBox="0 0 30 30" fill="none" xmlns="http://www.w3.org/2000/svg">
<path fill-rule="evenodd" clip-rule="evenodd" d="M8.33333 10.001C8.33333 8.23288 9.03571 6.53718 10.286 5.28694C11.5362 4.0367 13.2319 3.33432 15 3.33432C16.7681 3.33432 18.4638 4.0367 19.714 5.28694C20.9643 6.53718 21.6667 8.23288 21.6667 10.001C21.6667 11.7691 20.9643 13.4648 19.714 14.715C18.4638 15.9653 16.7681 16.6677 15 16.6677C13.2319 16.6677 11.5362 15.9653 10.286 14.715C9.03571 13.4648 8.33333 11.7691 8.33333 10.001ZM21.3733 17.706C22.9592 16.3941 24.1016 14.6248 24.6447 12.6396C25.1878 10.6544 25.1052 8.54995 24.408 6.61346C23.7108 4.67697 22.4331 3.00277 20.7492 1.81931C19.0654 0.635853 17.0573 0.000793457 14.9992 0.000793457C12.941 0.000793457 10.933 0.635853 9.24909 1.81931C7.56521 3.00277 6.28751 4.67697 5.59034 6.61346C4.89317 8.54995 4.8105 10.6544 5.35361 12.6396C5.89672 14.6248 7.03915 16.3941 8.625 17.706C3.31 19.5777 0 23.746 0 28.3343C0 28.7764 0.175595 29.2003 0.488155 29.5128C0.800716 29.8254 1.22464 30.001 1.66667 30.001C2.10869 30.001 2.53262 29.8254 2.84518 29.5128C3.15774 29.2003 3.33333 28.7764 3.33333 28.3343C3.33333 24.551 7.25833 20.001 15 20.001C22.7417 20.001 26.6667 24.551 26.6667 28.3343C26.6667 28.7764 26.8423 29.2003 27.1548 29.5128C27.4674 29.8254 27.8913 30.001 28.3333 30.001C28.7754 30.001 29.1993 29.8254 29.5118 29.5128C29.8244 29.2003 30 28.7764 30 28.3343C30 23.746 26.6933 19.5777 21.3733 17.706Z" fill="#FFFFFF"/>
</svg>
